<svg width="212" height="33" viewBox="0 0 212 33" fill="none" xmlns="http://www.w3.org/2000/svg">
<path d="M31 7.85898L27.4779 7.79676L25.692 4.90939L24.8083 8.26347L21 8.91685L24.4599 10.3792L24.771 10.5099L24.0367 13.6835L26.1898 11.7731L29.687 13.6835L28.2744 9.8316L31 7.85898Z" fill="#E43A12"/>
<path d="M4.19731 5.53806L6.60556 13.8426L1 20.1955L9.67831 19.8633L13.8306 28.5L15.2008 19.3651V18.5346L23.2977 17.9948L17.1939 14.2162L19.1869 4.5L10.8824 10.6453L4.19731 5.53806Z" fill="#E43A12"/>
<path d="M8.06548 30.125L6.79762 27.9881L7.88094 25.8452L5.52976 26.5536L3.74404 24.5L4.14284 27.125L4.17857 27.3571L2 28.0952L3.94046 28.6905L4.08927 31.5L5.87499 29.2321L8.06548 30.125Z" fill="#E43A12"/>
<path d="M21.7911 22.8185L22.387 24.8733L21 26.4452L23.1473 26.363L24.1747 28.5L24.4213 26.1884V25.9829L26.4247 25.839L24.9144 24.9144L25.4075 22.5L23.3528 24.0308L21.7911 22.8185Z" fill="#E43A12"/>
<path d="M40.8984 10.7422C40.638 10.6641 40.4818 10.4948 40.4297 10.2344C40.3646 10.0521 40.3841 9.85677 40.4883 9.64844C40.5924 9.42708 40.7552 9.30339 40.9766 9.27734C42.2396 9.08203 43.5026 8.97786 44.7656 8.96484C46.0417 8.9388 47.3177 8.91927 48.5938 8.90625C48.8411 8.90625 49.0299 8.98438 49.1602 9.14062C49.2904 9.29688 49.3555 9.47266 49.3555 9.66797C49.3555 9.86328 49.2904 10.0456 49.1602 10.2148C49.0299 10.3711 48.8411 10.4492 48.5938 10.4492C47.5781 10.4753 46.556 10.4883 45.5273 10.4883C44.4987 10.4883 43.4701 10.5404 42.4414 10.6445C42.4674 11.1654 42.5 11.6862 42.5391 12.207C42.5781 12.7148 42.6172 13.2292 42.6562 13.75C43.6458 13.6979 44.6289 13.6328 45.6055 13.5547C46.5951 13.4766 47.5846 13.4635 48.5742 13.5156C48.8216 13.5286 49.0104 13.6198 49.1406 13.7891C49.2708 13.9583 49.3359 14.1406 49.3359 14.3359C49.3359 14.5312 49.2708 14.707 49.1406 14.8633C49.0104 15.0195 48.8216 15.0911 48.5742 15.0781C47.5977 15.026 46.6276 15.0391 45.6641 15.1172C44.7135 15.1953 43.75 15.2604 42.7734 15.3125C42.8516 16.25 42.9232 17.1875 42.9883 18.125C43.0664 19.0495 43.1185 19.9805 43.1445 20.918C43.6003 20.8138 44.0625 20.7161 44.5312 20.625C45 20.5208 45.4688 20.4427 45.9375 20.3906C46.4062 20.3255 46.875 20.293 47.3438 20.293C47.8125 20.293 48.2812 20.332 48.75 20.4102C48.9583 20.4492 49.1146 20.5729 49.2188 20.7812C49.3229 20.9896 49.349 21.1849 49.2969 21.3672C49.2318 21.5885 49.1081 21.7448 48.9258 21.8359C48.7435 21.9271 48.5417 21.9531 48.3203 21.9141C47.9036 21.8359 47.4805 21.8099 47.0508 21.8359C46.6211 21.862 46.1979 21.9076 45.7812 21.9727C45.2995 22.0508 44.8177 22.1419 44.3359 22.2461C43.8672 22.3503 43.3984 22.4609 42.9297 22.5781C42.7083 22.6302 42.5 22.5911 42.3047 22.4609C42.1224 22.4349 41.9596 22.3633 41.8164 22.2461C41.6732 22.1289 41.6016 21.9531 41.6016 21.7188C41.5755 20.612 41.5234 19.5182 41.4453 18.4375C41.3802 17.3568 41.3021 16.2695 41.2109 15.1758C41.0677 15.0326 40.9831 14.8568 40.957 14.6484C40.944 14.4271 41.0026 14.2383 41.1328 14.082C41.0286 12.9753 40.9505 11.862 40.8984 10.7422ZM51.7773 18.1641C51.4388 17.9167 51.1979 17.6107 51.0547 17.2461C50.9115 16.8685 50.9049 16.4714 51.0352 16.0547C51.1654 15.6771 51.3672 15.3385 51.6406 15.0391C51.9141 14.7396 52.2266 14.4987 52.5781 14.3164C52.9688 14.1081 53.3854 13.9453 53.8281 13.8281C54.2708 13.7109 54.7201 13.6458 55.1758 13.6328C55.6315 13.6198 56.0807 13.6654 56.5234 13.7695C56.9792 13.8607 57.4089 14.0104 57.8125 14.2188C58.0339 14.3359 58.1576 14.4922 58.1836 14.6875C58.2096 14.8828 58.1706 15.0651 58.0664 15.2344C57.9753 15.4036 57.832 15.5273 57.6367 15.6055C57.4414 15.6836 57.2331 15.6641 57.0117 15.5469C56.6992 15.3776 56.3477 15.2669 55.957 15.2148C55.5664 15.1628 55.1693 15.1628 54.7656 15.2148C54.375 15.2539 54.0039 15.3516 53.6523 15.5078C53.3008 15.6641 53.0078 15.8659 52.7734 16.1133C52.7083 16.1784 52.6628 16.224 52.6367 16.25C52.6237 16.276 52.5977 16.3346 52.5586 16.4258L52.5195 16.6406C52.5586 16.7578 52.5911 16.8294 52.6172 16.8555C52.8776 17.0247 53.1445 17.1354 53.418 17.1875C53.7044 17.2266 53.9909 17.2526 54.2773 17.2656C54.681 17.2917 55.0911 17.3177 55.5078 17.3438C55.9375 17.3568 56.3477 17.4089 56.7383 17.5C57.1419 17.5911 57.513 17.7409 57.8516 17.9492C58.1901 18.1576 58.4766 18.4635 58.7109 18.8672C58.9714 19.3229 59.0885 19.7982 59.0625 20.293C59.0495 20.7747 58.8607 21.2109 58.4961 21.6016C58.1315 21.9922 57.7083 22.2656 57.2266 22.4219C56.7448 22.5651 56.2565 22.6693 55.7617 22.7344C55.319 22.7865 54.8568 22.7995 54.375 22.7734C53.9062 22.7474 53.4505 22.6693 53.0078 22.5391C52.5781 22.4219 52.1745 22.2396 51.7969 21.9922C51.4193 21.7318 51.1068 21.3932 50.8594 20.9766C50.7422 20.7682 50.7227 20.5729 50.8008 20.3906C50.8789 20.1953 50.9961 20.0521 51.1523 19.9609C51.3216 19.8568 51.5039 19.8177 51.6992 19.8438C51.9076 19.8698 52.0768 19.987 52.207 20.1953C52.3893 20.4948 52.6432 20.7227 52.9688 20.8789C53.2943 21.0352 53.6458 21.1458 54.0234 21.2109C54.4141 21.263 54.8047 21.276 55.1953 21.25C55.5859 21.2109 55.9375 21.1589 56.25 21.0938C56.4193 21.0547 56.5885 21.0026 56.7578 20.9375C56.9401 20.8594 57.0898 20.7682 57.207 20.6641C57.3372 20.5599 57.4284 20.4427 57.4805 20.3125C57.5326 20.1693 57.526 20.013 57.4609 19.8438C57.3307 19.5182 57.1094 19.2839 56.7969 19.1406C56.4974 18.9974 56.1784 18.9128 55.8398 18.8867C55.5013 18.8607 55.1562 18.8477 54.8047 18.8477C54.4531 18.8477 54.1016 18.8346 53.75 18.8086C53.3984 18.7695 53.0534 18.7044 52.7148 18.6133C52.3763 18.5221 52.0638 18.3724 51.7773 18.1641ZM66.4844 15.6836C66.7318 15.6836 66.9141 15.7617 67.0312 15.918C67.1615 16.0742 67.2266 16.25 67.2266 16.4453C67.2266 16.6406 67.1615 16.8229 67.0312 16.9922C66.9141 17.1484 66.7318 17.2266 66.4844 17.2266C66.1719 17.2396 65.8594 17.2396 65.5469 17.2266C65.2474 17.2005 64.9479 17.1745 64.6484 17.1484C64.6615 18.1771 64.6419 19.2057 64.5898 20.2344C64.5508 21.263 64.4466 22.2852 64.2773 23.3008C64.2513 23.5221 64.1341 23.6849 63.9258 23.7891C63.7174 23.8932 63.5156 23.9128 63.3203 23.8477C63.099 23.7826 62.9427 23.6589 62.8516 23.4766C62.7734 23.3073 62.7539 23.112 62.793 22.8906C62.9492 21.901 63.0339 20.9115 63.0469 19.9219C63.0729 18.9323 63.0729 17.9362 63.0469 16.9336C62.5521 16.8555 62.0508 16.7773 61.543 16.6992C61.0352 16.6081 60.5339 16.5299 60.0391 16.4648C59.8177 16.4388 59.6615 16.3216 59.5703 16.1133C59.4661 15.8919 59.4401 15.6901 59.4922 15.5078C59.5573 15.2865 59.681 15.1367 59.8633 15.0586C60.0456 14.9674 60.2409 14.9349 60.4492 14.9609C60.8789 15.026 61.3086 15.0977 61.7383 15.1758C62.168 15.2409 62.6042 15.306 63.0469 15.3711C63.0339 15.306 63.0273 15.2083 63.0273 15.0781C63.0273 13.9062 63.0208 12.7474 63.0078 11.6016C63.0078 10.4557 63.0664 9.29688 63.1836 8.125C63.2096 7.91667 63.2878 7.73438 63.418 7.57812C63.5612 7.42188 63.7435 7.34375 63.9648 7.34375C64.1602 7.34375 64.3424 7.42188 64.5117 7.57812C64.694 7.73438 64.7721 7.91667 64.7461 8.125C64.6159 9.375 64.5508 10.6185 64.5508 11.8555C64.5638 13.0794 64.5833 14.3229 64.6094 15.5859C64.9219 15.612 65.2344 15.638 65.5469 15.6641C65.8594 15.6771 66.1719 15.6836 66.4844 15.6836ZM68.5938 14.5508C68.6068 14.3034 68.6979 14.1211 68.8672 14.0039C69.0365 13.8737 69.2188 13.8086 69.4141 13.8086C69.6094 13.8086 69.7786 13.8737 69.9219 14.0039C70.0781 14.1211 70.1497 14.3034 70.1367 14.5508C70.1367 14.6289 70.1302 14.7135 70.1172 14.8047C70.1172 14.8828 70.1172 14.9609 70.1172 15.0391C70.5339 14.8307 70.9701 14.6549 71.4258 14.5117C71.8945 14.3555 72.3568 14.2578 72.8125 14.2188C73.2812 14.1797 73.7305 14.2188 74.1602 14.3359C74.6029 14.4401 75.0065 14.6484 75.3711 14.9609C75.5534 15.1302 75.6315 15.3125 75.6055 15.5078C75.5924 15.7031 75.5143 15.8724 75.3711 16.0156C75.2409 16.1458 75.0716 16.2305 74.8633 16.2695C74.6549 16.2956 74.4531 16.2305 74.2578 16.0742C74.1146 15.957 73.9518 15.8724 73.7695 15.8203C73.6003 15.7682 73.4115 15.7487 73.2031 15.7617C73.0078 15.7617 72.806 15.7812 72.5977 15.8203C72.4023 15.8594 72.2135 15.9049 72.0312 15.957C71.3411 16.1784 70.6966 16.4714 70.0977 16.8359C70.1237 17.474 70.1628 18.112 70.2148 18.75C70.2669 19.2839 70.3125 19.8372 70.3516 20.4102C70.3906 20.9701 70.5013 21.5039 70.6836 22.0117C70.7617 22.2461 70.7422 22.4414 70.625 22.5977C70.5208 22.7669 70.3711 22.8776 70.1758 22.9297C69.9935 22.9818 69.7982 22.9688 69.5898 22.8906C69.3945 22.8125 69.2578 22.6562 69.1797 22.4219C69.0755 22.1224 69.0039 21.8164 68.9648 21.5039C68.9258 21.1914 68.8867 20.8789 68.8477 20.5664C68.8216 20.2669 68.7891 19.9674 68.75 19.668C68.724 19.3555 68.6979 19.0495 68.6719 18.75C68.6068 18.0469 68.5612 17.3503 68.5352 16.6602C68.5221 15.957 68.5417 15.2539 68.5938 14.5508ZM77.0898 14.9219C77.3372 14.5833 77.6302 14.2839 77.9688 14.0234C78.3203 13.763 78.6914 13.5612 79.082 13.418C79.4727 13.2617 79.8763 13.1836 80.293 13.1836C80.7096 13.1706 81.1263 13.2487 81.543 13.418C81.9466 13.5742 82.3112 13.7891 82.6367 14.0625C82.9622 14.3229 83.2161 14.6615 83.3984 15.0781C83.5417 15.3906 83.6263 15.7292 83.6523 16.0938C83.6784 16.4583 83.5807 16.7904 83.3594 17.0898C83.1641 17.3633 82.9232 17.5716 82.6367 17.7148C82.3633 17.8581 82.0638 17.9622 81.7383 18.0273C81.4258 18.0924 81.1003 18.125 80.7617 18.125C80.4362 18.125 80.1237 18.1185 79.8242 18.1055C79.4857 18.0924 79.1471 18.0664 78.8086 18.0273C78.4831 17.9883 78.151 17.9492 77.8125 17.9102C77.9167 18.4961 78.125 19.0169 78.4375 19.4727C78.75 19.9284 79.1732 20.2734 79.707 20.5078C79.8503 20.5599 79.9609 20.599 80.0391 20.625C80.0781 20.638 80.1107 20.651 80.1367 20.6641C80.1758 20.6641 80.2148 20.6641 80.2539 20.6641C80.3581 20.6771 80.4427 20.6901 80.5078 20.7031C80.5859 20.7031 80.6576 20.6966 80.7227 20.6836C80.8138 20.6706 80.8724 20.6641 80.8984 20.6641C80.9375 20.651 80.9766 20.638 81.0156 20.625C81.1589 20.5859 81.2826 20.5404 81.3867 20.4883C81.5039 20.4362 81.6406 20.3516 81.7969 20.2344C81.875 20.1693 81.9792 20.0716 82.1094 19.9414C82.2396 19.8112 82.3503 19.694 82.4414 19.5898C82.5716 19.4076 82.7279 19.2839 82.9102 19.2188C83.1055 19.1536 83.3008 19.1797 83.4961 19.2969C83.6654 19.401 83.7826 19.5638 83.8477 19.7852C83.9258 19.9935 83.8997 20.1888 83.7695 20.3711C83.3919 20.8789 82.9427 21.3151 82.4219 21.6797C81.9141 22.0312 81.3281 22.2201 80.6641 22.2461C80.1302 22.2721 79.6159 22.181 79.1211 21.9727C78.6263 21.7513 78.1901 21.4583 77.8125 21.0938C77.3438 20.638 76.9727 20.1107 76.6992 19.5117C76.4258 18.9128 76.276 18.3008 76.25 17.6758C76.1328 17.5846 76.0417 17.474 75.9766 17.3438C75.9245 17.2005 75.9049 17.0573 75.918 16.9141C75.944 16.7708 75.9961 16.6406 76.0742 16.5234C76.1523 16.3932 76.2695 16.3086 76.4258 16.2695C76.569 15.7878 76.7904 15.3385 77.0898 14.9219ZM81.7773 15.3906C81.6341 15.2083 81.4128 15.0456 81.1133 14.9023C80.8659 14.7982 80.5729 14.7461 80.2344 14.7461C79.9089 14.7461 79.6289 14.8047 79.3945 14.9219C79.0951 15.0651 78.8281 15.2669 78.5938 15.5273C78.3594 15.7747 78.1706 16.0547 78.0273 16.3672C78.3398 16.4062 78.6523 16.4453 78.9648 16.4844C79.2773 16.5234 79.5898 16.5495 79.9023 16.5625C80.0716 16.5625 80.2409 16.5625 80.4102 16.5625C80.5794 16.5625 80.7487 16.556 80.918 16.543C80.9701 16.543 81.0156 16.543 81.0547 16.543C81.1068 16.5299 81.1589 16.5234 81.2109 16.5234C81.3281 16.4974 81.4128 16.4844 81.4648 16.4844C81.5299 16.4714 81.5951 16.4518 81.6602 16.4258C81.7122 16.4128 81.7773 16.3932 81.8555 16.3672C81.9206 16.3411 81.9596 16.3216 81.9727 16.3086C81.9857 16.2956 82.0052 16.2826 82.0312 16.2695L82.0898 16.0352C82.0638 15.9831 82.0443 15.9375 82.0312 15.8984C82.0312 15.8464 82.0182 15.8008 81.9922 15.7617C81.9792 15.7227 81.9466 15.6641 81.8945 15.5859C81.8555 15.5078 81.8164 15.4427 81.7773 15.3906ZM86.4844 7.16797C86.7188 7.16797 86.901 7.24609 87.0312 7.40234C87.1615 7.55859 87.2396 7.74089 87.2656 7.94922C87.3958 9.1862 87.4674 10.4232 87.4805 11.6602C87.4935 12.8971 87.474 14.1341 87.4219 15.3711C87.3828 16.6081 87.3177 17.8451 87.2266 19.082C87.1354 20.319 87.0443 21.5495 86.9531 22.7734C86.9271 22.9948 86.8424 23.1771 86.6992 23.3203C86.569 23.4766 86.3932 23.5547 86.1719 23.5547C85.9766 23.5547 85.7943 23.4766 85.625 23.3203C85.4557 23.1771 85.3776 22.9948 85.3906 22.7734C85.4818 21.5495 85.5729 20.319 85.6641 19.082C85.7682 17.8451 85.8398 16.6081 85.8789 15.3711C85.931 14.1341 85.9505 12.8971 85.9375 11.6602C85.9245 10.4232 85.8529 9.1862 85.7227 7.94922C85.6966 7.74089 85.7682 7.55859 85.9375 7.40234C86.1068 7.24609 86.2891 7.16797 86.4844 7.16797ZM90.8789 21.9727C90.4362 21.7773 90.0846 21.5104 89.8242 21.1719C89.5768 20.8203 89.401 20.4362 89.2969 20.0195C89.2057 19.6029 89.1797 19.1732 89.2188 18.7305C89.2578 18.2747 89.349 17.8385 89.4922 17.4219C89.6094 17.0964 89.7396 16.7578 89.8828 16.4062C90.0391 16.0547 90.2214 15.7292 90.4297 15.4297C90.638 15.1302 90.8854 14.8763 91.1719 14.668C91.4583 14.4466 91.7969 14.3034 92.1875 14.2383C92.5911 14.1732 92.9948 14.1536 93.3984 14.1797C93.8151 14.1927 94.2253 14.2318 94.6289 14.2969C94.8112 14.3229 94.987 14.3685 95.1562 14.4336C95.3255 14.4857 95.4948 14.5443 95.6641 14.6094C95.6771 14.4141 95.7617 14.2513 95.918 14.1211C96.0872 13.9909 96.263 13.9258 96.4453 13.9258C96.6667 13.9258 96.8424 14.0039 96.9727 14.1602C97.1159 14.3034 97.2005 14.4792 97.2266 14.6875C97.2917 15.2865 97.3177 15.8854 97.3047 16.4844C97.3047 17.0833 97.2852 17.6823 97.2461 18.2812C97.2201 18.8802 97.194 19.4792 97.168 20.0781C97.1549 20.6771 97.1615 21.276 97.1875 21.875C97.2005 22.1224 97.1224 22.3112 96.9531 22.4414C96.7969 22.5586 96.6211 22.6172 96.4258 22.6172C96.2305 22.6172 96.0482 22.5586 95.8789 22.4414C95.7227 22.3112 95.638 22.1224 95.625 21.875C94.8828 22.1875 94.0951 22.3698 93.2617 22.4219C92.4284 22.4609 91.6341 22.3112 90.8789 21.9727ZM91.0156 17.7344C90.9375 17.9688 90.8659 18.2357 90.8008 18.5352C90.7357 18.8346 90.7161 19.1211 90.7422 19.3945C90.7682 19.668 90.8529 19.9219 90.9961 20.1562C91.1393 20.3776 91.3737 20.5339 91.6992 20.625C92.3633 20.8333 93.0273 20.8919 93.6914 20.8008C94.3685 20.7096 95 20.4753 95.5859 20.0977C95.638 19.4596 95.6771 18.8411 95.7031 18.2422C95.7422 17.6432 95.7552 17.0378 95.7422 16.4258C95.5208 16.2826 95.293 16.1589 95.0586 16.0547C94.8372 15.9375 94.5898 15.8594 94.3164 15.8203C94.043 15.7812 93.75 15.7552 93.4375 15.7422C93.138 15.7161 92.8451 15.7161 92.5586 15.7422C92.5326 15.7422 92.4609 15.7617 92.3438 15.8008C92.2396 15.8268 92.181 15.8464 92.168 15.8594C92.0378 15.9245 91.9206 16.0286 91.8164 16.1719C91.6471 16.4062 91.4974 16.6602 91.3672 16.9336C91.237 17.194 91.1198 17.4609 91.0156 17.7344ZM99.9219 18.1641C99.5833 17.9167 99.3424 17.6107 99.1992 17.2461C99.056 16.8685 99.0495 16.4714 99.1797 16.0547C99.3099 15.6771 99.5117 15.3385 99.7852 15.0391C100.059 14.7396 100.371 14.4987 100.723 14.3164C101.113 14.1081 101.53 13.9453 101.973 13.8281C102.415 13.7109 102.865 13.6458 103.32 13.6328C103.776 13.6198 104.225 13.6654 104.668 13.7695C105.124 13.8607 105.553 14.0104 105.957 14.2188C106.178 14.3359 106.302 14.4922 106.328 14.6875C106.354 14.8828 106.315 15.0651 106.211 15.2344C106.12 15.4036 105.977 15.5273 105.781 15.6055C105.586 15.6836 105.378 15.6641 105.156 15.5469C104.844 15.3776 104.492 15.2669 104.102 15.2148C103.711 15.1628 103.314 15.1628 102.91 15.2148C102.52 15.2539 102.148 15.3516 101.797 15.5078C101.445 15.6641 101.152 15.8659 100.918 16.1133C100.853 16.1784 100.807 16.224 100.781 16.25C100.768 16.276 100.742 16.3346 100.703 16.4258L100.664 16.6406C100.703 16.7578 100.736 16.8294 100.762 16.8555C101.022 17.0247 101.289 17.1354 101.562 17.1875C101.849 17.2266 102.135 17.2526 102.422 17.2656C102.826 17.2917 103.236 17.3177 103.652 17.3438C104.082 17.3568 104.492 17.4089 104.883 17.5C105.286 17.5911 105.658 17.7409 105.996 17.9492C106.335 18.1576 106.621 18.4635 106.855 18.8672C107.116 19.3229 107.233 19.7982 107.207 20.293C107.194 20.7747 107.005 21.2109 106.641 21.6016C106.276 21.9922 105.853 22.2656 105.371 22.4219C104.889 22.5651 104.401 22.6693 103.906 22.7344C103.464 22.7865 103.001 22.7995 102.52 22.7734C102.051 22.7474 101.595 22.6693 101.152 22.5391C100.723 22.4219 100.319 22.2396 99.9414 21.9922C99.5638 21.7318 99.2513 21.3932 99.0039 20.9766C98.8867 20.7682 98.8672 20.5729 98.9453 20.3906C99.0234 20.1953 99.1406 20.0521 99.2969 19.9609C99.4661 19.8568 99.6484 19.8177 99.8438 19.8438C100.052 19.8698 100.221 19.987 100.352 20.1953C100.534 20.4948 100.788 20.7227 101.113 20.8789C101.439 21.0352 101.79 21.1458 102.168 21.2109C102.559 21.263 102.949 21.276 103.34 21.25C103.73 21.2109 104.082 21.1589 104.395 21.0938C104.564 21.0547 104.733 21.0026 104.902 20.9375C105.085 20.8594 105.234 20.7682 105.352 20.6641C105.482 20.5599 105.573 20.4427 105.625 20.3125C105.677 20.1693 105.671 20.013 105.605 19.8438C105.475 19.5182 105.254 19.2839 104.941 19.1406C104.642 18.9974 104.323 18.9128 103.984 18.8867C103.646 18.8607 103.301 18.8477 102.949 18.8477C102.598 18.8477 102.246 18.8346 101.895 18.8086C101.543 18.7695 101.198 18.7044 100.859 18.6133C100.521 18.5221 100.208 18.3724 99.9219 18.1641ZM116.973 15.3711C117.441 15.0846 117.943 14.8372 118.477 14.6289C119.023 14.4206 119.577 14.3229 120.137 14.3359C120.085 13.2292 120.039 12.1289 120 11.0352C119.974 9.94141 119.954 8.84115 119.941 7.73438C119.941 7.48698 120.02 7.30469 120.176 7.1875C120.332 7.05729 120.508 6.99219 120.703 6.99219C120.898 6.99219 121.074 7.05729 121.23 7.1875C121.4 7.30469 121.484 7.48698 121.484 7.73438C121.497 9.02344 121.53 10.319 121.582 11.6211C121.634 12.9102 121.686 14.1992 121.738 15.4883C121.79 16.7773 121.829 18.0729 121.855 19.375C121.882 20.6641 121.875 21.9531 121.836 23.2422C121.823 23.4896 121.732 23.6784 121.562 23.8086C121.393 23.9388 121.211 24.0039 121.016 24.0039C120.82 24.0039 120.645 23.9388 120.488 23.8086C120.332 23.6914 120.26 23.5026 120.273 23.2422C120.273 23.151 120.273 23.0599 120.273 22.9688C120.273 22.8776 120.28 22.7865 120.293 22.6953C120.163 22.6823 120.033 22.6693 119.902 22.6562C119.785 22.6562 119.668 22.6562 119.551 22.6562C119.395 22.6562 119.238 22.6562 119.082 22.6562C118.926 22.6562 118.776 22.6497 118.633 22.6367C118.294 22.6107 117.956 22.5781 117.617 22.5391C117.279 22.5 116.947 22.4219 116.621 22.3047C116.296 22.1745 115.99 22.0182 115.703 21.8359C115.417 21.6406 115.182 21.3867 115 21.0742C114.792 20.7487 114.616 20.3971 114.473 20.0195C114.342 19.6419 114.29 19.2513 114.316 18.8477C114.342 18.444 114.434 18.0729 114.59 17.7344C114.746 17.3958 114.941 17.0833 115.176 16.7969C115.423 16.5104 115.697 16.25 115.996 16.0156C116.309 15.7812 116.634 15.5664 116.973 15.3711ZM120.312 21.1523C120.312 19.4076 120.273 17.6562 120.195 15.8984C119.766 15.8724 119.336 15.9505 118.906 16.1328C118.49 16.3021 118.105 16.4974 117.754 16.7188C117.559 16.8359 117.344 16.9727 117.109 17.1289C116.888 17.2721 116.68 17.4414 116.484 17.6367C116.302 17.819 116.152 18.0208 116.035 18.2422C115.918 18.4635 115.859 18.7044 115.859 18.9648C115.872 19.1992 115.924 19.4531 116.016 19.7266C116.107 19.987 116.23 20.2018 116.387 20.3711C116.543 20.5404 116.719 20.6706 116.914 20.7617C117.109 20.8398 117.318 20.9049 117.539 20.957C117.799 21.0091 118.047 21.0417 118.281 21.0547C118.529 21.0677 118.783 21.0807 119.043 21.0938C119.251 21.0938 119.46 21.1068 119.668 21.1328C119.876 21.1458 120.091 21.1523 120.312 21.1523ZM128.613 13.4961C129.03 13.444 129.466 13.431 129.922 13.457C130.378 13.4701 130.814 13.5482 131.23 13.6914C131.647 13.8216 132.025 14.0234 132.363 14.2969C132.702 14.5703 132.962 14.9284 133.145 15.3711C133.275 15.6836 133.34 16.0026 133.34 16.3281C133.353 16.6406 133.307 16.9466 133.203 17.2461C133.112 17.5326 132.969 17.8125 132.773 18.0859C132.591 18.3464 132.376 18.5872 132.129 18.8086C131.595 19.2904 131.009 19.7005 130.371 20.0391C129.733 20.3776 129.062 20.638 128.359 20.8203C128.06 20.8984 127.747 20.9701 127.422 21.0352C127.109 21.0872 126.79 21.1133 126.465 21.1133C126.139 21.1133 125.82 21.0807 125.508 21.0156C125.195 20.9375 124.902 20.8138 124.629 20.6445C124.434 20.5273 124.316 20.3711 124.277 20.1758C124.199 19.9544 124.115 19.7461 124.023 19.5508C123.932 19.3555 123.841 19.1536 123.75 18.9453C123.672 18.737 123.607 18.5286 123.555 18.3203C123.503 18.112 123.477 17.8971 123.477 17.6758C123.477 17.2331 123.568 16.8164 123.75 16.4258C123.945 16.0221 124.206 15.6706 124.531 15.3711C125.078 14.8503 125.71 14.4336 126.426 14.1211C127.142 13.8086 127.871 13.6003 128.613 13.4961ZM130.82 15.1758C130.469 15.0456 130.091 14.9805 129.688 14.9805C129.258 14.9674 128.828 15.013 128.398 15.1172C127.969 15.2083 127.559 15.3385 127.168 15.5078C126.803 15.651 126.426 15.8529 126.035 16.1133C125.658 16.3607 125.378 16.6667 125.195 17.0312C125.091 17.2266 125.039 17.4284 125.039 17.6367C125.052 17.832 125.085 18.0339 125.137 18.2422C125.202 18.4375 125.28 18.6393 125.371 18.8477C125.475 19.043 125.566 19.2383 125.645 19.4336C125.853 19.4857 125.983 19.5117 126.035 19.5117C126.061 19.5247 126.094 19.5312 126.133 19.5312C126.172 19.5312 126.204 19.5312 126.23 19.5312C126.491 19.5573 126.725 19.5508 126.934 19.5117C127.077 19.5117 127.259 19.4857 127.48 19.4336C127.819 19.3685 128.145 19.2839 128.457 19.1797C128.77 19.0625 129.056 18.9388 129.316 18.8086C129.616 18.6654 129.909 18.5091 130.195 18.3398C130.482 18.1706 130.723 17.9948 130.918 17.8125C131.048 17.6953 131.172 17.5716 131.289 17.4414C131.354 17.3763 131.4 17.3242 131.426 17.2852C131.491 17.194 131.543 17.1289 131.582 17.0898C131.621 17.0378 131.654 16.9792 131.68 16.9141C131.732 16.8229 131.758 16.7513 131.758 16.6992C131.771 16.6732 131.777 16.6406 131.777 16.6016C131.79 16.5625 131.803 16.5299 131.816 16.5039V16.2891C131.803 16.237 131.797 16.1979 131.797 16.1719C131.797 16.1458 131.79 16.1198 131.777 16.0938C131.738 16.0026 131.699 15.9375 131.66 15.8984C131.634 15.8464 131.602 15.7943 131.562 15.7422C131.576 15.7552 131.556 15.7357 131.504 15.6836C131.465 15.6315 131.439 15.599 131.426 15.5859L131.27 15.4297C131.204 15.3906 131.133 15.3451 131.055 15.293C130.977 15.2409 130.898 15.2018 130.82 15.1758ZM141.992 22.2461C141.992 22.4935 141.908 22.6758 141.738 22.793C141.582 22.9232 141.406 22.9883 141.211 22.9883C141.016 22.9883 140.84 22.9232 140.684 22.793C140.527 22.6758 140.449 22.4935 140.449 22.2461C140.449 21.2305 140.566 20.2539 140.801 19.3164C141.035 18.3789 141.328 17.4479 141.68 16.5234C141.589 16.3542 141.562 16.1654 141.602 15.957C141.68 15.6836 141.849 15.5143 142.109 15.4492C142.37 14.8242 142.637 14.2057 142.91 13.5938C143.197 12.9688 143.47 12.3438 143.73 11.7188C143.991 11.0938 144.232 10.4622 144.453 9.82422C144.674 9.1862 144.857 8.53516 145 7.87109C145.039 7.67578 145.117 7.50651 145.234 7.36328C145.365 7.22005 145.54 7.14844 145.762 7.14844C145.97 7.14844 146.159 7.22656 146.328 7.38281C146.497 7.52604 146.569 7.70833 146.543 7.92969C146.504 8.6849 146.517 9.38151 146.582 10.0195C146.647 10.6445 146.745 11.2695 146.875 11.8945C147.005 12.5065 147.148 13.125 147.305 13.75C147.474 14.362 147.63 14.974 147.773 15.5859C147.917 16.1719 148.047 16.7578 148.164 17.3438C148.281 17.9297 148.47 18.4961 148.73 19.043C148.861 19.3164 148.997 19.5833 149.141 19.8438C149.284 20.0911 149.44 20.3451 149.609 20.6055C149.766 20.8398 149.909 21.0872 150.039 21.3477C150.169 21.5951 150.26 21.8685 150.312 22.168C150.339 22.3763 150.306 22.5716 150.215 22.7539C150.137 22.9362 149.987 23.0599 149.766 23.125C149.583 23.1771 149.388 23.151 149.18 23.0469C148.971 22.9427 148.848 22.7865 148.809 22.5781C148.757 22.2786 148.652 22.0117 148.496 21.7773C148.353 21.543 148.203 21.3021 148.047 21.0547C147.865 20.7682 147.695 20.4818 147.539 20.1953C147.396 19.8958 147.266 19.5898 147.148 19.2773C147.018 18.9518 146.908 18.6263 146.816 18.3008C146.725 17.9622 146.641 17.6237 146.562 17.2852C145.977 17.2461 145.397 17.2201 144.824 17.207C144.264 17.181 143.698 17.1354 143.125 17.0703C142.812 17.9036 142.546 18.75 142.324 19.6094C142.116 20.4688 142.005 21.3477 141.992 22.2461ZM143.828 15.332C143.802 15.3711 143.783 15.4167 143.77 15.4688C143.77 15.5078 143.757 15.5469 143.73 15.5859C144.147 15.625 144.557 15.651 144.961 15.6641C145.365 15.6641 145.775 15.6771 146.191 15.7031C146.048 15.0781 145.892 14.4596 145.723 13.8477C145.566 13.2227 145.423 12.5911 145.293 11.9531C145.059 12.526 144.818 13.0924 144.57 13.6523C144.323 14.1992 144.076 14.7591 143.828 15.332ZM153.184 22.7539C153.001 22.819 152.799 22.7995 152.578 22.6953C152.37 22.5911 152.253 22.4349 152.227 22.2266C152.044 21.0807 151.927 19.9479 151.875 18.8281C151.836 17.6953 151.816 16.556 151.816 15.4102C151.816 15.2148 151.868 15.0586 151.973 14.9414C152.077 14.8242 152.201 14.7461 152.344 14.707C152.487 14.668 152.637 14.6615 152.793 14.6875C152.949 14.7135 153.079 14.7786 153.184 14.8828C153.483 14.6354 153.802 14.4206 154.141 14.2383C154.479 14.056 154.818 13.9388 155.156 13.8867C155.508 13.8216 155.853 13.8411 156.191 13.9453C156.53 14.0365 156.849 14.2383 157.148 14.5508C157.396 14.8112 157.611 15.0911 157.793 15.3906C157.975 15.6771 158.138 15.9831 158.281 16.3086C158.477 15.8138 158.75 15.3581 159.102 14.9414C159.453 14.5247 159.902 14.2448 160.449 14.1016C160.853 13.9974 161.172 14.0234 161.406 14.1797C161.641 14.3229 161.862 14.5508 162.07 14.8633C162.292 15.1888 162.493 15.5208 162.676 15.8594C162.871 16.1979 163.053 16.543 163.223 16.8945C163.392 17.2461 163.555 17.5977 163.711 17.9492C163.867 18.3008 164.023 18.6458 164.18 18.9844C164.362 19.362 164.518 19.7396 164.648 20.1172C164.792 20.4818 164.883 20.8724 164.922 21.2891C164.948 21.5104 164.87 21.6992 164.688 21.8555C164.518 21.9987 164.336 22.0703 164.141 22.0703C163.919 22.0703 163.737 21.9987 163.594 21.8555C163.464 21.6992 163.385 21.5104 163.359 21.2891C163.333 20.9766 163.249 20.6771 163.105 20.3906C162.975 20.0911 162.845 19.7982 162.715 19.5117C162.572 19.2122 162.428 18.9062 162.285 18.5938C162.155 18.2812 162.018 17.9753 161.875 17.6758C161.732 17.3763 161.576 17.0768 161.406 16.7773C161.25 16.4779 161.081 16.1849 160.898 15.8984C160.872 15.8594 160.846 15.8203 160.82 15.7812C160.794 15.7422 160.768 15.7031 160.742 15.6641C160.482 15.8073 160.293 15.944 160.176 16.0742C160.059 16.2044 159.948 16.3802 159.844 16.6016C159.753 16.7969 159.674 17.0052 159.609 17.2266C159.557 17.4349 159.512 17.6497 159.473 17.8711C159.395 18.2878 159.336 18.724 159.297 19.1797C159.271 19.5182 159.271 19.8438 159.297 20.1562C159.336 20.4688 159.323 20.7943 159.258 21.1328C159.219 21.3411 159.095 21.4974 158.887 21.6016C158.691 21.7057 158.496 21.7318 158.301 21.6797C158.118 21.6276 157.982 21.5365 157.891 21.4062C157.812 21.263 157.76 21.1003 157.734 20.918C157.682 20.5013 157.624 20.0716 157.559 19.6289C157.493 19.1862 157.409 18.75 157.305 18.3203C157.201 17.8776 157.064 17.4544 156.895 17.0508C156.738 16.6341 156.53 16.25 156.27 15.8984C156.087 15.6641 155.898 15.5078 155.703 15.4297C155.521 15.3516 155.293 15.3841 155.02 15.5273C154.72 15.6836 154.427 15.8724 154.141 16.0938C153.854 16.3151 153.6 16.5625 153.379 16.8359C153.392 17.6693 153.418 18.5026 153.457 19.3359C153.509 20.1562 153.6 20.9766 153.73 21.7969C153.757 22.0182 153.724 22.2201 153.633 22.4023C153.555 22.5716 153.405 22.6888 153.184 22.7539ZM167.52 21.9727C167.077 21.7773 166.725 21.5104 166.465 21.1719C166.217 20.8203 166.042 20.4362 165.938 20.0195C165.846 19.6029 165.82 19.1732 165.859 18.7305C165.898 18.2747 165.99 17.8385 166.133 17.4219C166.25 17.0964 166.38 16.7578 166.523 16.4062C166.68 16.0547 166.862 15.7292 167.07 15.4297C167.279 15.1302 167.526 14.8763 167.812 14.668C168.099 14.4466 168.438 14.3034 168.828 14.2383C169.232 14.1732 169.635 14.1536 170.039 14.1797C170.456 14.1927 170.866 14.2318 171.27 14.2969C171.452 14.3229 171.628 14.3685 171.797 14.4336C171.966 14.4857 172.135 14.5443 172.305 14.6094C172.318 14.4141 172.402 14.2513 172.559 14.1211C172.728 13.9909 172.904 13.9258 173.086 13.9258C173.307 13.9258 173.483 14.0039 173.613 14.1602C173.757 14.3034 173.841 14.4792 173.867 14.6875C173.932 15.2865 173.958 15.8854 173.945 16.4844C173.945 17.0833 173.926 17.6823 173.887 18.2812C173.861 18.8802 173.835 19.4792 173.809 20.0781C173.796 20.6771 173.802 21.276 173.828 21.875C173.841 22.1224 173.763 22.3112 173.594 22.4414C173.438 22.5586 173.262 22.6172 173.066 22.6172C172.871 22.6172 172.689 22.5586 172.52 22.4414C172.363 22.3112 172.279 22.1224 172.266 21.875C171.523 22.1875 170.736 22.3698 169.902 22.4219C169.069 22.4609 168.275 22.3112 167.52 21.9727ZM167.656 17.7344C167.578 17.9688 167.507 18.2357 167.441 18.5352C167.376 18.8346 167.357 19.1211 167.383 19.3945C167.409 19.668 167.493 19.9219 167.637 20.1562C167.78 20.3776 168.014 20.5339 168.34 20.625C169.004 20.8333 169.668 20.8919 170.332 20.8008C171.009 20.7096 171.641 20.4753 172.227 20.0977C172.279 19.4596 172.318 18.8411 172.344 18.2422C172.383 17.6432 172.396 17.0378 172.383 16.4258C172.161 16.2826 171.934 16.1589 171.699 16.0547C171.478 15.9375 171.23 15.8594 170.957 15.8203C170.684 15.7812 170.391 15.7552 170.078 15.7422C169.779 15.7161 169.486 15.7161 169.199 15.7422C169.173 15.7422 169.102 15.7617 168.984 15.8008C168.88 15.8268 168.822 15.8464 168.809 15.8594C168.678 15.9245 168.561 16.0286 168.457 16.1719C168.288 16.4062 168.138 16.6602 168.008 16.9336C167.878 17.194 167.76 17.4609 167.656 17.7344ZM175.957 20.625C175.957 20.0651 175.996 19.4987 176.074 18.9258C176.165 18.2357 176.257 17.5521 176.348 16.875C176.439 16.1849 176.478 15.4883 176.465 14.7852C176.465 14.5378 176.543 14.349 176.699 14.2188C176.855 14.0885 177.031 14.0234 177.227 14.0234C177.422 14.0234 177.604 14.0885 177.773 14.2188C177.943 14.349 178.027 14.5378 178.027 14.7852C178.535 14.7461 179.017 14.7266 179.473 14.7266C179.993 14.7396 180.436 14.8893 180.801 15.1758C181.165 15.4622 181.439 15.8464 181.621 16.3281C181.777 16.7708 181.868 17.2266 181.895 17.6953C181.921 18.1641 181.94 18.6328 181.953 19.1016C181.966 19.7656 181.986 20.4297 182.012 21.0938C182.038 21.7448 182.051 22.4023 182.051 23.0664C182.051 23.3268 181.966 23.5156 181.797 23.6328C181.641 23.763 181.465 23.8281 181.27 23.8281C181.087 23.8281 180.911 23.763 180.742 23.6328C180.586 23.5156 180.508 23.3268 180.508 23.0664C180.508 22.4414 180.495 21.8294 180.469 21.2305C180.456 20.6315 180.436 20.0195 180.41 19.3945C180.384 19.056 180.371 18.7109 180.371 18.3594C180.384 17.9948 180.358 17.6628 180.293 17.3633C180.254 17.181 180.215 17.0247 180.176 16.8945C180.137 16.7513 180.065 16.6146 179.961 16.4844C179.935 16.4323 179.876 16.3867 179.785 16.3477C179.707 16.3086 179.635 16.2891 179.57 16.2891C179.375 16.2891 179.193 16.3021 179.023 16.3281C178.854 16.3542 178.678 16.3932 178.496 16.4453C178.418 16.4714 178.34 16.4974 178.262 16.5234C178.184 16.5495 178.112 16.582 178.047 16.6211C177.917 17.0898 177.819 17.5391 177.754 17.9688C177.702 18.3854 177.65 18.8086 177.598 19.2383C177.559 19.5508 177.533 19.8698 177.52 20.1953C177.52 20.5078 177.507 20.8203 177.48 21.1328C177.467 21.4453 177.428 21.7578 177.363 22.0703C177.311 22.3828 177.214 22.6823 177.07 22.9688C176.953 23.1901 176.797 23.3138 176.602 23.3398C176.406 23.3789 176.224 23.3464 176.055 23.2422C175.898 23.151 175.775 23.0078 175.684 22.8125C175.605 22.6172 175.618 22.4089 175.723 22.1875C175.84 21.9531 175.905 21.6992 175.918 21.4258C175.931 21.1523 175.944 20.8854 175.957 20.625ZM184.238 22.1094C184.056 22.0443 183.9 21.9206 183.77 21.7383C183.652 21.543 183.633 21.3477 183.711 21.1523C183.932 20.5404 184.082 19.9219 184.16 19.2969C184.238 18.6719 184.29 18.0339 184.316 17.3828C184.329 17.1875 184.336 16.9987 184.336 16.8164C184.336 16.6211 184.342 16.4258 184.355 16.2305C184.316 16.0742 184.329 15.9245 184.395 15.7812C184.421 15.4036 184.447 15.026 184.473 14.6484C184.499 14.2578 184.538 13.8737 184.59 13.4961C184.655 12.9232 184.72 12.3568 184.785 11.7969C184.863 11.224 184.915 10.6445 184.941 10.0586C184.967 9.52474 184.993 8.9974 185.02 8.47656C185.059 7.94271 185.195 7.4349 185.43 6.95312C185.547 6.73177 185.703 6.60807 185.898 6.58203C186.094 6.54297 186.276 6.57552 186.445 6.67969C186.615 6.77083 186.738 6.91406 186.816 7.10938C186.908 7.30469 186.895 7.51302 186.777 7.73438C186.673 7.95573 186.602 8.18359 186.562 8.41797C186.523 8.65234 186.497 8.89323 186.484 9.14062C186.484 9.38802 186.484 9.63542 186.484 9.88281C186.484 10.1302 186.478 10.3711 186.465 10.6055C186.4 11.1914 186.335 11.7773 186.27 12.3633C186.204 12.9362 186.139 13.5156 186.074 14.1016C186.621 13.8281 187.227 13.6784 187.891 13.6523C188.411 13.6393 188.939 13.7305 189.473 13.9258C190.02 14.1081 190.462 14.4076 190.801 14.8242C190.996 15.0716 191.152 15.3451 191.27 15.6445C191.387 15.931 191.478 16.237 191.543 16.5625C191.621 16.875 191.673 17.194 191.699 17.5195C191.725 17.832 191.751 18.138 191.777 18.4375C191.816 19.0495 191.829 19.6615 191.816 20.2734C191.816 20.8724 191.803 21.4844 191.777 22.1094C191.777 22.3568 191.693 22.5391 191.523 22.6562C191.354 22.7865 191.172 22.8516 190.977 22.8516C190.781 22.8516 190.605 22.7865 190.449 22.6562C190.293 22.5391 190.221 22.3568 190.234 22.1094C190.247 21.5885 190.26 21.0677 190.273 20.5469C190.286 20.026 190.28 19.5052 190.254 18.9844C190.228 18.724 190.208 18.457 190.195 18.1836C190.182 17.9102 190.15 17.6367 190.098 17.3633C190.072 17.2331 190.046 17.1094 190.02 16.9922C190.007 16.862 189.98 16.7318 189.941 16.6016C189.928 16.4974 189.896 16.3867 189.844 16.2695C189.805 16.1523 189.779 16.0872 189.766 16.0742C189.74 16.0352 189.72 16.0026 189.707 15.9766C189.694 15.9375 189.674 15.8984 189.648 15.8594C189.531 15.7292 189.46 15.6576 189.434 15.6445C189.382 15.6055 189.336 15.5794 189.297 15.5664C189.258 15.5404 189.219 15.5143 189.18 15.4883C189.036 15.4102 188.874 15.3451 188.691 15.293C188.509 15.2409 188.333 15.2148 188.164 15.2148C187.721 15.1888 187.305 15.2669 186.914 15.4492C186.536 15.6315 186.198 15.9115 185.898 16.2891C185.872 17.1875 185.827 18.0794 185.762 18.9648C185.697 19.8372 185.508 20.7031 185.195 21.5625C185.13 21.7578 185.007 21.9141 184.824 22.0312C184.655 22.1484 184.46 22.1745 184.238 22.1094ZM195 21.9727C194.557 21.7773 194.206 21.5104 193.945 21.1719C193.698 20.8203 193.522 20.4362 193.418 20.0195C193.327 19.6029 193.301 19.1732 193.34 18.7305C193.379 18.2747 193.47 17.8385 193.613 17.4219C193.73 17.0964 193.861 16.7578 194.004 16.4062C194.16 16.0547 194.342 15.7292 194.551 15.4297C194.759 15.1302 195.007 14.8763 195.293 14.668C195.579 14.4466 195.918 14.3034 196.309 14.2383C196.712 14.1732 197.116 14.1536 197.52 14.1797C197.936 14.1927 198.346 14.2318 198.75 14.2969C198.932 14.3229 199.108 14.3685 199.277 14.4336C199.447 14.4857 199.616 14.5443 199.785 14.6094C199.798 14.4141 199.883 14.2513 200.039 14.1211C200.208 13.9909 200.384 13.9258 200.566 13.9258C200.788 13.9258 200.964 14.0039 201.094 14.1602C201.237 14.3034 201.322 14.4792 201.348 14.6875C201.413 15.2865 201.439 15.8854 201.426 16.4844C201.426 17.0833 201.406 17.6823 201.367 18.2812C201.341 18.8802 201.315 19.4792 201.289 20.0781C201.276 20.6771 201.283 21.276 201.309 21.875C201.322 22.1224 201.243 22.3112 201.074 22.4414C200.918 22.5586 200.742 22.6172 200.547 22.6172C200.352 22.6172 200.169 22.5586 200 22.4414C199.844 22.3112 199.759 22.1224 199.746 21.875C199.004 22.1875 198.216 22.3698 197.383 22.4219C196.549 22.4609 195.755 22.3112 195 21.9727ZM195.137 17.7344C195.059 17.9688 194.987 18.2357 194.922 18.5352C194.857 18.8346 194.837 19.1211 194.863 19.3945C194.889 19.668 194.974 19.9219 195.117 20.1562C195.26 20.3776 195.495 20.5339 195.82 20.625C196.484 20.8333 197.148 20.8919 197.812 20.8008C198.49 20.7096 199.121 20.4753 199.707 20.0977C199.759 19.4596 199.798 18.8411 199.824 18.2422C199.863 17.6432 199.876 17.0378 199.863 16.4258C199.642 16.2826 199.414 16.1589 199.18 16.0547C198.958 15.9375 198.711 15.8594 198.438 15.8203C198.164 15.7812 197.871 15.7552 197.559 15.7422C197.259 15.7161 196.966 15.7161 196.68 15.7422C196.654 15.7422 196.582 15.7617 196.465 15.8008C196.361 15.8268 196.302 15.8464 196.289 15.8594C196.159 15.9245 196.042 16.0286 195.938 16.1719C195.768 16.4062 195.618 16.6602 195.488 16.9336C195.358 17.194 195.241 17.4609 195.137 17.7344ZM199.492 12.5C199.219 12.6042 198.932 12.6367 198.633 12.5977C198.346 12.5456 198.086 12.4284 197.852 12.2461C197.669 12.1029 197.493 11.9466 197.324 11.7773C197.155 11.5951 196.953 11.4844 196.719 11.4453C196.497 11.4062 196.283 11.4453 196.074 11.5625C195.879 11.6797 195.71 11.8099 195.566 11.9531C195.384 12.1354 195.189 12.2135 194.98 12.1875C194.785 12.1615 194.616 12.0833 194.473 11.9531C194.342 11.8099 194.258 11.6406 194.219 11.4453C194.193 11.237 194.271 11.0417 194.453 10.8594C194.674 10.638 194.922 10.4492 195.195 10.293C195.469 10.1367 195.755 10.026 196.055 9.96094C196.367 9.88281 196.673 9.86979 196.973 9.92188C197.285 9.96094 197.585 10.0651 197.871 10.2344C198.118 10.4036 198.333 10.5859 198.516 10.7812C198.581 10.8464 198.639 10.9049 198.691 10.957C198.743 10.9961 198.802 11.0286 198.867 11.0547C198.945 11.0677 199.023 11.0482 199.102 10.9961C199.18 10.931 199.258 10.8594 199.336 10.7812C199.414 10.6901 199.486 10.599 199.551 10.5078C199.616 10.4036 199.668 10.3255 199.707 10.2734C199.85 10.1042 200.033 10.026 200.254 10.0391C200.475 10.0521 200.658 10.1302 200.801 10.2734C200.97 10.4297 201.048 10.612 201.035 10.8203C201.022 11.0156 200.944 11.1979 200.801 11.3672C200.618 11.5885 200.43 11.8099 200.234 12.0312C200.039 12.2396 199.792 12.3958 199.492 12.5Z" fill="#292524"/>
</svg>
